<svg id="Слой_1" data-name="Слой 1" xmlns="http://www.w3.org/2000/svg" viewBox="0 0 331.86 70.67"><title>app-logo</title><g id="g14"><path id="path16" d="M101.21,19V55.5h8.19V26.3H129V55.5h8.26V19Zm50.34,18.3c0-7.53,5.35-12.09,12.22-12.09S176,29.74,176,37.27s-5.35,12.09-12.22,12.09-12.22-4.56-12.22-12.09m32.7,0c0-11.5-9.38-19.16-20.48-19.16s-20.48,7.66-20.48,19.16,9.38,19.16,20.48,19.16,20.48-7.67,20.48-19.16m15-18.3-4.89,26.16A3.25,3.25,0,0,1,190.79,48h-4V55.5h4.36c6,0,10-2.84,11.23-9.31l3.7-19.82h14V55.5h8.26V19Zm37.06,0V55.5h8.12V40H250c1.26,10.51,9.64,16.39,19.82,16.39,11,0,19.95-6.94,19.95-19.16s-8.92-19.16-19.95-19.16c-9.58,0-17.57,5.22-19.49,14.53h-5.88V19ZM258,37.27c0-7.53,4-12.09,11.76-12.09s11.76,4.56,11.76,12.09-4,12.09-11.76,12.09S258,44.8,258,37.27m75.57-9.38c-3.76-6.41-10-9.78-18.49-9.78-11.5,0-20.42,7.33-20.42,19.16s8.73,19.16,20.42,19.16c8.52,0,14.73-3.37,18.49-9.78l-6.4-3.7c-2.78,4-6.41,6.14-12.22,6.14-7.14,0-12.09-4.75-12.09-11.82S307.65,25.44,315,25.44c5.81,0,9.44,2.18,12.22,6.15l6.4-3.7" transform="translate(-1.75 -2)" style="fill:#FFC920"/></g><path id="path18" d="M44.26,3.07,39.94,29a1,1,0,0,1-1.35.66l-13-5a2.72,2.72,0,0,1-1.93-3.16l2.77-16.6A2.72,2.72,0,0,1,29.3,2.54L43.2,2a1,1,0,0,1,1.06,1.07M7,21.75,30.37,33.82a1,1,0,0,1,.22,1.49L21.83,46.12a2.7,2.7,0,0,1-3.59.86l-15-7.72a2.71,2.71,0,0,1-1.37-3.44L5.66,22.43A1,1,0,0,1,7,21.75m6.25,41.1L32,44.39a1,1,0,0,1,1.49.25L41,56.31a2.73,2.73,0,0,1-.3,3.69l-12,11.82a2.71,2.71,0,0,1-3.69.24L13.48,64.34a1,1,0,0,1-.23-1.49m41.24,6.7L42.58,46.1a1,1,0,0,1,.69-1.34L56.69,41.1a2.71,2.71,0,0,1,3.42,1.41l7.63,15a2.71,2.71,0,0,1-.89,3.59L56,69.78a1,1,0,0,1-1.49-.23m19-36.82-26,3.9a1,1,0,0,1-1.05-1.07l.76-13.89a2.72,2.72,0,0,1,2.41-2.81l16.64-2.5a2.71,2.71,0,0,1,3.13,2l4.81,13.05a1,1,0,0,1-.69,1.34" transform="translate(-1.75 -2)" style="fill:#FFC920;fill-rule:evenodd"/></svg>